<?xml version="1.0" standalone="no"?>
<!DOCTYPE svg PUBLIC "-//W3C//DTD SVG 20010904//EN"
 "http://www.w3.org/TR/2001/REC-SVG-20010904/DTD/svg10.dtd">
<svg version="1.0" xmlns="http://www.w3.org/2000/svg"
 width="713.000000pt" height="223.000000pt" viewBox="0 0 713.000000 223.000000"
 preserveAspectRatio="xMidYMid meet">

<g transform="translate(0.000000,223.000000) scale(0.100000,-0.100000)"
fill="#000000" stroke="none">
<path d="M615 2039 c-124 -9 -246 -56 -321 -121 -98 -86 -146 -179 -158 -304
-11 -112 -41 -104 410 -104 247 0 392 4 405 10 18 10 19 24 19 261 0 191 -3
251 -12 254 -24 7 -264 10 -343 4z m345 -76 c0 -48 -3 -64 -10 -53 -5 8 -10
12 -10 7 0 -4 -17 1 -39 12 -38 20 -56 44 -45 62 3 5 -10 16 -28 24 -32 14
-31 14 50 15 l82 0 0 -67z"/>
<path d="M1077 2033 c-4 -3 -7 -120 -7 -259 0 -220 2 -253 16 -258 28 -11 434
-7 434 4 0 6 -15 10 -34 10 -26 0 -45 9 -72 34 -21 19 -42 33 -46 30 -4 -3 -8
-1 -8 5 0 5 -16 26 -35 45 -19 20 -35 41 -35 46 0 6 -7 10 -15 10 -14 0 -17 4
-19 33 -1 18 -20 36 -30 29 -5 -3 -6 0 -3 5 4 6 -5 23 -18 39 -14 16 -25 35
-25 42 0 6 -5 12 -12 12 -6 0 -8 3 -5 7 4 3 0 14 -8 22 -8 9 -15 33 -17 54 -1
20 -6 37 -10 37 -4 0 -8 7 -8 16 0 8 -4 12 -10 9 -5 -3 -10 1 -10 9 0 11 14
16 58 19 l57 3 -66 2 c-36 1 -69 -1 -72 -5z m10 -90 c-2 -16 -4 -5 -4 22 0 28
2 40 4 28 2 -13 2 -35 0 -50z"/>
<path d="M6840 1405 c0 -80 -2 -145 -5 -145 -4 0 -19 7 -34 14 -44 23 -123 30
-182 16 -61 -15 -120 -63 -152 -124 -25 -49 -35 -198 -18 -262 42 -157 230
-224 358 -128 l32 24 3 -23 c3 -19 10 -22 55 -25 l53 -3 2 400 3 401 -57 0
-58 0 0 -145z m-34 -210 l35 -14 -3 -153 -3 -152 -34 -23 c-46 -31 -136 -32
-175 -2 -44 35 -60 76 -60 159 0 89 22 143 73 177 40 27 113 31 167 8z"/>
<path d="M6230 1520 c-45 -45 -11 -120 55 -120 42 0 75 32 75 72 0 39 -32 68
-75 68 -22 0 -43 -8 -55 -20z"/>
<path d="M2747 1511 c-109 -36 -178 -96 -230 -201 -31 -62 -32 -70 -32 -185 0
-109 2 -125 26 -176 37 -78 88 -131 161 -167 123 -60 283 -67 424 -20 l69 23
3 173 2 172 -135 0 -136 0 2 -45 3 -45 58 -1 c32 -1 64 -2 71 -3 8 -1 13 -29
15 -98 l3 -97 -28 -8 c-15 -4 -68 -8 -118 -8 -101 0 -145 17 -201 77 -44 46
-61 85 -73 160 -24 149 32 282 144 341 60 31 190 35 275 8 35 -11 68 -17 71
-13 4 4 14 24 22 44 l16 37 -57 22 c-82 32 -273 37 -355 10z"/>
<path d="M3475 1517 c-65 -22 -102 -45 -129 -80 -45 -58 -52 -169 -17 -235 22
-41 92 -81 195 -113 171 -53 196 -72 196 -148 0 -52 -37 -97 -93 -112 -57 -15
-169 -6 -240 21 -32 12 -59 20 -60 18 -2 -1 -10 -20 -20 -40 l-17 -38 34 -14
c19 -8 69 -22 112 -31 170 -38 339 7 394 105 19 35 25 59 24 105 -1 120 -52
167 -245 229 -142 45 -177 78 -165 155 12 75 88 108 207 91 36 -5 81 -16 101
-24 l36 -16 18 45 c9 25 15 47 13 49 -2 2 -26 11 -54 21 -66 23 -236 30 -290
12z"/>
<path d="M5264 1512 c-79 -24 -123 -52 -178 -113 -67 -75 -90 -141 -90 -269
-1 -120 15 -177 71 -250 40 -53 94 -91 171 -122 48 -19 76 -22 177 -22 101 0
131 4 190 25 l70 24 3 173 2 172 -135 0 -135 0 0 -45 0 -45 75 0 75 0 0 -100
0 -99 -37 -10 c-56 -16 -139 -13 -202 6 -76 24 -144 91 -165 164 -21 70 -20
183 1 250 23 70 90 139 158 162 66 23 185 22 255 -3 30 -10 55 -18 56 -17 1 1
11 21 23 44 l21 42 -58 22 c-80 31 -261 36 -348 11z"/>
<path d="M3980 1134 l0 -385 203 3 c246 4 287 16 379 108 48 48 60 68 78 129
31 100 26 231 -12 312 -75 164 -200 219 -499 219 l-149 0 0 -386z m377 264
c118 -44 170 -139 161 -292 -12 -188 -96 -263 -305 -274 l-103 -5 0 296 c0
227 3 297 13 301 25 11 181 -6 234 -26z"/>
<path d="M143 1416 c-4 -8 -6 -117 -3 -243 l5 -228 270 0 270 0 3 230 c2 207
1 231 -15 242 -26 20 -519 18 -530 -1z"/>
<path d="M6033 1279 c-24 -12 -54 -34 -67 -50 -31 -36 -36 -36 -36 0 0 53 -8
61 -61 61 l-49 0 0 -270 0 -270 60 0 60 0 0 174 c0 161 2 175 21 200 30 38 73
57 130 58 l49 1 0 59 0 58 -32 0 c-18 0 -52 -9 -75 -21z"/>
<path d="M6228 1020 l3 -270 54 0 55 0 0 270 0 270 -57 0 -58 0 3 -270z"/>
<path d="M1237 1173 c-13 -12 -8 -388 5 -401 8 -8 50 -12 124 -12 62 0 119 -3
128 -6 14 -5 16 -41 16 -293 0 -210 3 -290 12 -299 15 -15 360 -17 389 -2 17
9 19 21 17 93 -1 70 -2 73 -5 22 -6 -106 -5 -105 -71 -103 -39 1 -46 2 -22 5
19 3 40 9 45 14 7 7 7 9 0 7 -13 -4 -88 42 -81 50 3 3 -8 13 -24 23 -17 11
-30 23 -30 28 0 5 -14 24 -31 42 -17 18 -40 51 -51 73 -11 23 -28 49 -37 60
-9 10 -14 19 -12 20 2 0 1 11 -3 24 -5 13 -10 21 -14 18 -7 -7 -32 61 -32 89
-1 20 -1 20 -15 1 -14 -19 -15 -18 -16 17 -1 20 -3 42 -4 47 -1 6 -3 21 -4 35
-1 17 -11 32 -31 43 -16 9 -35 31 -41 47 -23 60 -54 120 -71 136 -10 9 -18 25
-18 36 0 12 -7 26 -15 33 -8 7 -15 23 -15 36 0 12 -6 29 -14 36 -10 10 -11 20
-4 31 11 21 3 36 -20 39 -9 1 35 5 98 8 l115 6 -131 2 c-72 1 -134 -1 -137 -5z"/>
<path d="M142 833 c-16 -31 4 -261 27 -328 42 -117 134 -227 238 -283 67 -35
159 -62 214 -62 74 0 69 -25 69 345 0 294 -2 334 -16 339 -9 3 -130 6 -269 6
-232 0 -255 -2 -263 -17z"/>
<path d="M798 619 c-16 -9 -18 -31 -18 -229 0 -207 1 -220 19 -230 12 -6 127
-10 303 -10 240 0 287 2 306 16 22 15 22 18 20 227 -2 190 -3 196 -5 60 -2
-84 -7 -153 -11 -153 -20 0 -65 49 -67 73 -2 16 -8 34 -14 41 -6 7 -8 16 -4
19 3 4 1 7 -6 7 -7 0 -17 14 -22 30 -6 17 -15 30 -21 30 -5 0 -6 5 -2 11 3 6
2 14 -3 18 -6 3 -13 23 -17 44 -6 30 -4 37 9 37 8 0 15 5 15 10 0 14 -459 13
-482 -1z"/>
</g>
</svg>
